<svg width="100" height="58" viewBox="0 0 100 58" fill="none" xmlns="http://www.w3.org/2000/svg">
    <g clip-path="url(#clip0_13_23)">
        <path d="M80.6862 75.9769C77.2432 75.9769 74.0667 75.4236 71.1565 74.3169C68.2464 73.2102 65.7051 71.6527 63.5328 69.6443C61.4014 67.5949 59.7414 65.2176 58.5527 62.5124C57.3641 59.8072 56.7698 56.8355 56.7698 53.5975C56.7698 50.3595 57.3641 47.3878 58.5527 44.6826C59.7414 41.9774 61.4014 39.6206 63.5328 37.6122C65.7051 35.5628 68.2464 33.9848 71.1565 32.8781C74.0667 31.7714 77.2432 31.2181 80.6862 31.2181C84.1702 31.2181 87.3468 31.7714 90.2159 32.8781C93.1261 33.9848 95.6468 35.5628 97.7782 37.6122C99.9096 39.6206 101.57 41.9774 102.758 44.6826C103.988 47.3878 104.603 50.3595 104.603 53.5975C104.603 56.8355 103.988 59.8277 102.758 62.5739C101.57 65.2791 99.9096 67.6359 97.7782 69.6443C95.6468 71.6527 93.1261 73.2102 90.2159 74.3169C87.3468 75.4236 84.1702 75.9769 80.6862 75.9769ZM80.6862 65.8939C82.3257 65.8939 83.8423 65.607 85.2359 65.0331C86.6705 64.4593 87.9001 63.6395 88.9248 62.5739C89.9905 61.4672 90.8102 60.1556 91.3841 58.639C91.9989 57.1225 92.3063 55.442 92.3063 53.5975C92.3063 51.7121 91.9989 50.0315 91.3841 48.556C90.8102 47.0394 89.9905 45.7483 88.9248 44.6826C87.9001 43.5759 86.6705 42.7357 85.2359 42.1619C83.8423 41.588 82.3257 41.3011 80.6862 41.3011C79.0467 41.3011 77.5097 41.588 76.0751 42.1619C74.6815 42.7357 73.4519 43.5759 72.3862 44.6826C71.3615 45.7483 70.5417 47.0394 69.9269 48.556C69.3531 50.0315 69.0661 51.7121 69.0661 53.5975C69.0661 55.442 69.3531 57.1225 69.9269 58.639C70.5417 60.1556 71.3615 61.4672 72.3862 62.5739C73.4519 63.6395 74.6815 64.4593 76.0751 65.0331C77.5097 65.607 79.0467 65.8939 80.6862 65.8939ZM53.8186 150.116L72.8165 107.079H84.8055L103.865 150.116H91.1996L76.321 113.043H81.1166L66.238 150.116H53.8186ZM64.2091 141.755L67.3447 132.778H88.3715L91.507 141.755H64.2091Z" fill="#31383C"/>
        <path fill-rule="evenodd" clip-rule="evenodd" d="M46.7755 39.3885C46.422 39.3885 46.1078 39.3493 45.7543 39.3885C44.8117 39.467 44.4975 39.0747 44.5368 38.1331C44.5761 36.0931 44.5368 36.0538 42.5338 36.0931C41.3948 36.0931 40.9235 35.7008 41.1984 34.563C41.2377 34.3669 41.2377 34.1315 41.2377 33.9353C41.277 33.1507 41.0806 32.1307 41.4733 31.5814C41.7875 31.1499 42.8872 31.2676 43.5942 31.1891C44.4975 31.1107 44.4975 30.4437 44.5368 29.816C44.6154 27.8937 44.6154 27.8937 46.5791 27.8937C46.8148 27.8937 47.0897 27.8937 47.3646 27.8937C49.2106 27.8937 49.2891 27.8937 49.2498 29.816C49.2106 30.993 49.6819 31.2676 50.7816 31.2676C52.6275 31.2283 52.6275 31.2676 52.6275 33.0722C52.6275 33.3469 52.6275 33.5822 52.6275 33.8569C52.5882 35.9361 52.981 36.25 50.4281 36.1323C49.6426 36.0931 49.2106 36.4069 49.2498 37.2308C49.4069 39.6631 49.1713 39.3493 46.7755 39.3885Z" fill="#31383C"/>
        <path d="M55.3768 57.0427C55.3768 57.0427 45.9507 52.7273 39.2346 49.5887C32.5578 46.4502 28.7089 44.3709 33.3433 35.3869C37.9778 26.4029 37.9778 26.4029 37.9778 26.4029C37.9778 26.4029 25.9596 46.0971 18.6151 38.2116C11.2314 30.3653 1.76605 22.9897 1.76605 22.9897C1.76605 22.9897 12.9595 28.5606 18.9686 30.5222C24.9777 32.4838 30.9083 33.1507 41.0806 18.7527C51.2921 4.39393 53.2166 1.80465 53.2166 1.80465C53.2166 1.80465 44.144 17.8111 40.2165 27.619C36.289 37.3877 38.0956 42.6055 45.8329 48.8826C53.5701 55.1596 55.3768 57.0427 55.3768 57.0427Z" fill="#31383C"/>
        <path d="M29.1409 21.2243C29.1409 24.0097 26.9022 26.2459 24.1137 26.2459C21.3251 26.2852 19.0472 24.0097 19.0472 21.2243C19.0472 18.4388 21.2859 16.2026 24.0744 16.2026C26.863 16.2026 29.1409 18.4388 29.1409 21.2243Z" fill="#31383C"/>
    </g>
    <defs>
        <clipPath id="clip0_13_23">
            <rect width="100" height="58" fill="white"/>
        </clipPath>
    </defs>
</svg>
